# xmcd
# 
# Track frame offsets:
#     150
#     42302
#     79392
#     116365
#     167054
#     205663
#     253987
# 
# Disc length: 3705
# 
# Revision: 2
# Processed by: cddbd v1.5.2PL0 Copyright (c) Steve Scherf et al.
# Submitted via: fre:ac v1.0.17
# 
DISCID=5b0e7707
DTITLE=Sir Arthur Conan Doyle - Die Abenteuer des Sherlock Holmes
DYEAR=2012
DGENRE=Hörbuch
TTITLE0=Die Liga Der Rotschöpfe 01
TTITLE1=Die Liga Der Rotschöpfe 02
TTITLE2=Die Liga Der Rotschöpfe 03
TTITLE3=Die Liga Der Rotschöpfe 04
TTITLE4=Die Liga Der Rotschöpfe 05
TTITLE5=Die Liga Der Rotschöpfe 06
TTITLE6=Die Liga Der Rotschöpfe 07
EXTD=der Hörverlag - gelesen von Oliver Kalkofe
EXTT0=
EXTT1=
EXTT2=
EXTT3=
EXTT4=
EXTT5=
EXTT6=
PLAYORDER=
